<svg width="32" height="32" viewBox="0 0 32 32" fill="none" xmlns="http://www.w3.org/2000/svg">
<path d="M26.6667 4H5.33333C3.86266 4 2.66666 5.196 2.66666 6.66667V25.3333C2.66666 26.804 3.86266 28 5.33333 28H26.6667C28.1373 28 29.3333 26.804 29.3333 25.3333V6.66667C29.3333 5.196 28.1373 4 26.6667 4ZM5.33333 25.3333V9.33333H26.6667L26.6693 25.3333H5.33333Z" fill="#58ACFA"/>
<path d="M12.3907 12.3906L7.448 17.3333L12.3907 22.276L14.276 20.3906L11.2187 17.3333L14.276 14.276L12.3907 12.3906ZM19.6093 12.3906L17.724 14.276L20.7813 17.3333L17.724 20.3906L19.6093 22.276L24.552 17.3333L19.6093 12.3906Z" fill="#58ACFA"/>
</svg>
