<svg width="32" height="32" viewBox="0 0 32 32" fill="none" xmlns="http://www.w3.org/2000/svg">
<path d="M6.66667 29.3334H25.3333C26.804 29.3334 28 28.1374 28 26.6667V12C28 11.2627 27.404 10.6667 26.6667 10.6667H22.6667V9.33335C22.6667 5.65735 19.676 2.66669 16 2.66669C12.324 2.66669 9.33333 5.65735 9.33333 9.33335V10.6667H5.33333C4.596 10.6667 4 11.2627 4 12V26.6667C4 28.1374 5.196 29.3334 6.66667 29.3334ZM12 9.33335C12 7.12802 13.7947 5.33335 16 5.33335C18.2053 5.33335 20 7.12802 20 9.33335V10.6667H12V9.33335ZM6.66667 13.3334H9.33333V16H12V13.3334H20V16H22.6667V13.3334H25.3333L25.336 26.6667H6.66667V13.3334Z" fill="#58ACFA"/>
</svg>
