<svg width="34" height="28" viewBox="0 0 34 28" fill="none" xmlns="http://www.w3.org/2000/svg">
<g filter="url(#filter0_d)">
<path d="M16.5153 5.15234L8.60903 11.6836V18.6875C8.60903 19.0742 8.90981 19.375 9.29653 19.375H14.109C14.4528 19.375 14.7536 19.0742 14.7536 18.6875V14.5625C14.7536 14.2188 15.0973 13.875 15.4411 13.875H18.1911C18.5778 13.875 18.8786 14.2188 18.8786 14.5625V18.6875C18.8786 19.0742 19.2223 19.375 19.5661 19.375H24.4215C24.7653 19.375 25.109 19.0742 25.109 18.6875V11.6406L17.1598 5.15234C17.0739 5.06641 16.945 5.02344 16.859 5.02344C16.7301 5.02344 16.6012 5.06641 16.5153 5.15234ZM29.0192 9.57812L25.4528 6.61328V0.683594C25.4528 0.382812 25.195 0.167969 24.9372 0.167969H22.5309C22.2301 0.167969 22.0153 0.382812 22.0153 0.683594V3.77734L18.1481 0.597656C17.8043 0.339844 17.3317 0.167969 16.859 0.167969C16.3434 0.167969 15.8707 0.339844 15.527 0.597656L4.6559 9.57812C4.527 9.66406 4.44106 9.83594 4.44106 9.96484C4.44106 10.0938 4.527 10.2227 4.56997 10.3086L5.68715 11.6406C5.77309 11.7695 5.902 11.8125 6.07387 11.8125C6.20278 11.8125 6.33168 11.7695 6.41762 11.6836L16.5153 3.39062C16.6012 3.30469 16.7301 3.26172 16.859 3.26172C16.945 3.26172 17.0739 3.30469 17.1598 3.39062L27.2575 11.6836C27.3434 11.7695 27.4723 11.8125 27.6012 11.8125C27.7731 11.8125 27.902 11.7695 27.9879 11.6406L29.1051 10.3086C29.1911 10.2227 29.234 10.0938 29.234 9.96484C29.234 9.83594 29.1481 9.66406 29.0192 9.57812Z" fill="#58ACFA"/>
</g>
<defs>
<filter id="filter0_d" x="0.44104" y="0.167969" width="32.793" height="27.207" filterUnits="userSpaceOnUse" color-interpolation-filters="sRGB">
<feFlood flood-opacity="0" result="BackgroundImageFix"/>
<feColorMatrix in="SourceAlpha" type="matrix" values="0 0 0 0 0 0 0 0 0 0 0 0 0 0 0 0 0 0 127 0"/>
<feOffset dy="4"/>
<feGaussianBlur stdDeviation="2"/>
<feColorMatrix type="matrix" values="0 0 0 0 0 0 0 0 0 0 0 0 0 0 0 0 0 0 0.25 0"/>
<feBlend mode="normal" in2="BackgroundImageFix" result="effect1_dropShadow"/>
<feBlend mode="normal" in="SourceGraphic" in2="effect1_dropShadow" result="shape"/>
</filter>
</defs>
</svg>
